<?xml version="1.0" encoding="iso-8859-1"?>
<!-- Generator: Adobe Illustrator 16.0.0, SVG Export Plug-In . SVG Version: 6.00 Build 0)  -->
<!DOCTYPE svg PUBLIC "-//W3C//DTD SVG 1.1//EN" "http://www.w3.org/Graphics/SVG/1.1/DTD/svg11.dtd">
<svg version="1.1" xmlns="http://www.w3.org/2000/svg" xmlns:xlink="http://www.w3.org/1999/xlink" x="0px" y="0px" width="512px"
	 height="512px" viewBox="0 0 512 512" style="enable-background:new 0 0 512 512;" xml:space="preserve">
<g id="B283_x2C__Cv_x2C__Education_x2C__High_School_x2C__Science">
	<g>
		<polygon style="fill:#D7DEED;" points="326,26 325.25,26 96,26 96,486 416,486 416,116 		"/>
		<polygon style="fill:#AFB9D2;" points="416,116 326,116 325.25,26 326,26 		"/>
		<polygon style="fill:#FF7979;" points="359.96,210.39 316,326 293.69,326 249.4,210.39 277.57,210.39 304.92,292.46 
			331.79,210.39 		"/>
		<path style="fill:#FF7979;" d="M227.42,287.25l21.98,12.86c-5.37,13.055-18.474,21.56-32.32,25.08
			c-12.377,3.112-25.028,2.271-35.99-3.341c-13.664-7.006-23.282-18.84-28.57-32.81c-5.264-13.873-5.499-28.335-0.33-42.58
			c4.998-13.774,14.625-24.948,28.41-31.67c6.9-3.37,14.74-5.05,23.53-5.05c10.31,0,19.27,2.34,26.87,7
			c7.6,4.67,13.24,10.75,16.93,18.24l-20.51,14.33c-1.2-3.04-2.72-5.56-4.56-7.57c-3.79-4.118-8.261-6.562-12.79-7.49
			c-7.992-1.682-14.448-0.318-18.96,2.36c-21.278,12.596-20.326,52.028,1.14,63.75c10.091,5.523,23.665,2.69,30.93-5.7
			C224.92,292.65,226.33,290.18,227.42,287.25z"/>
	</g>
</g>
<g id="Layer_1">
</g>
</svg>
