<?xml version="1.0" encoding="UTF-8" standalone="no"?> <svg width="64" height="64" viewBox="0 0 64 64" fill="none" xmlns="http://www.w3.org/2000/svg">
<path d="M49.61 44.51L50 43.43V20.04L40.98 44.82L41.05 46.94L41.12 49.13L41.32 55.59L45.63 50.77L48.5 47.56L49.61 44.51Z" fill="#CFF09E"/>
<path d="M37 23L33 19V13L31.5 11H23L24.5 9H24L21 13V19L17 23L14 35H22V40.8C21.9997 42.8831 22.65 44.9143 23.86 46.61L27 51L30.15 46.51C31.3118 44.8774 31.9563 42.9333 32 40.93V39V35H40L37 23ZM29 22C28.6044 22 28.2178 21.8827 27.8889 21.6629C27.56 21.4432 27.3036 21.1308 27.1522 20.7654C27.0009 20.3999 26.9613 19.9978 27.0384 19.6098C27.1156 19.2219 27.3061 18.8655 27.5858 18.5858C27.8655 18.3061 28.2219 18.1156 28.6098 18.0384C28.9978 17.9613 29.3999 18.0009 29.7654 18.1522C30.1308 18.3036 30.4432 18.56 30.6629 18.8889C30.8827 19.2178 31 19.6044 31 20C31 20.5304 30.7893 21.0391 30.4142 21.4142C30.0391 21.7893 29.5304 22 29 22Z" fill="#CFF09E"/>
<path d="M37 54C31.6957 54 26.6086 51.8929 22.8579 48.1421C19.1071 44.3914 17 39.3043 17 34V9H12C11.4696 9 10.9609 9.21071 10.5858 9.58579C10.2107 9.96086 10 10.4696 10 11V59C10 59.5304 10.2107 60.0391 10.5858 60.4142C10.9609 60.7893 11.4696 61 12 61H48C48.5304 61 49.0391 60.7893 49.4142 60.4142C49.7893 60.0391 50 59.5304 50 59V54H37Z" fill="#CFF09E"/>
<path d="M60.0791 21.2541L52.5615 18.518L42.985 44.8294L50.5025 47.5655L60.0791 21.2541Z" fill="#A8DBA8"/>
<path d="M43.32 55.59L42.98 44.82L50.5 47.56L43.32 55.59Z" fill="#CFF09E"/>
<path d="M47.63 50.77L43.12 49.13L43.32 55.59L47.63 50.77Z" fill="#79BD9A"/>
<path d="M58.3631 14.2435C59.36 14.6063 60.1719 15.3503 60.6203 16.3118C61.0686 17.2733 61.1167 18.3735 60.7538 19.3704L60.0698 21.2497L52.5522 18.5136L53.2363 16.6342C53.5991 15.6373 54.3431 14.8254 55.3046 14.377C56.2661 13.9287 57.3663 13.8807 58.3631 14.2435V14.2435Z" fill="#CFF09E"/>
<path d="M17 42H15C14.4477 42 14 42.4477 14 43V45C14 45.5523 14.4477 46 15 46H17C17.5523 46 18 45.5523 18 45V43C18 42.4477 17.5523 42 17 42Z" fill="#79BD9A"/>
<path d="M44 17C45.1046 17 46 16.1046 46 15C46 13.8954 45.1046 13 44 13C42.8954 13 42 13.8954 42 15C42 16.1046 42.8954 17 44 17Z" fill="#A8DBA8"/>
<path d="M38 47H36C35.4477 47 35 47.4477 35 48V50C35 50.5523 35.4477 51 36 51H38C38.5523 51 39 50.5523 39 50V48C39 47.4477 38.5523 47 38 47Z" fill="#79BD9A"/>
<path d="M28 53H14V57H28V53Z" fill="#A8DBA8"/>
<path d="M23 11V33H35V11H23ZM29 22C28.6044 22 28.2178 21.8827 27.8889 21.6629C27.56 21.4432 27.3036 21.1308 27.1522 20.7654C27.0009 20.3999 26.9613 19.9978 27.0384 19.6098C27.1156 19.2219 27.3061 18.8655 27.5858 18.5858C27.8655 18.3061 28.2219 18.1156 28.6098 18.0384C28.9978 17.9613 29.3999 18.0009 29.7654 18.1522C30.1308 18.3036 30.4432 18.56 30.6629 18.8889C30.8827 19.2178 31 19.6044 31 20C31 20.5304 30.7893 21.0391 30.4142 21.4142C30.0391 21.7893 29.5304 22 29 22Z" fill="#79BD9A"/>
<path d="M34 33H24V37H34V33Z" fill="#CFF09E"/>
<path d="M24 37V38.8C23.9997 40.8831 24.65 42.9143 25.86 44.61L29 49L32.15 44.51C33.3085 42.8757 33.9527 40.9327 34 38.93V37H24Z" fill="#A8DBA8"/>
<path d="M27.49 41.45C26.5597 40.149 26.0407 38.5989 26 37H32C31.9534 38.5639 31.4493 40.0797 30.55 41.36L29 43.54L27.49 41.45Z" fill="#79BD9A"/>
<path d="M29 11V3L23 11H29Z" fill="#CFF09E"/>
<path d="M29 3L32.43 11H35L29 3Z" fill="#CFF09E"/>
<path d="M42 33H35V17L39 21L42 33Z" fill="#79BD9A"/>
<path d="M16 33H23V17L19 21L16 33Z" fill="#79BD9A"/>
<path d="M30.33 20.67C29.7996 20.67 29.2908 20.4593 28.9158 20.0842C28.5407 19.7091 28.33 19.2004 28.33 18.67C28.3332 18.4727 28.3669 18.277 28.43 18.09C28.0965 18.1873 27.7942 18.3697 27.5526 18.6193C27.3111 18.8689 27.1388 19.1772 27.0526 19.5136C26.9664 19.8501 26.9693 20.2032 27.061 20.5382C27.1528 20.8733 27.3302 21.1786 27.5758 21.4242C27.8214 21.6698 28.1267 21.8472 28.4617 21.939C28.7967 22.0307 29.1499 22.0336 29.4864 21.9474C29.8228 21.8612 30.1311 21.6889 30.3807 21.4473C30.6303 21.2058 30.8127 20.9034 30.91 20.57C30.723 20.6331 30.5273 20.6668 30.33 20.67Z" fill="#CFF09E"/>
<path d="M58.71 13.3C58.0922 13.0755 57.4361 12.975 56.7794 13.0043C56.1227 13.0336 55.4783 13.1921 54.8829 13.4708C54.2875 13.7494 53.753 14.1427 53.3097 14.6282C52.8665 15.1137 52.5234 15.6818 52.3 16.3L51.62 18.18L51 19.87V11C51 10.2044 50.6839 9.44129 50.1213 8.87868C49.5587 8.31607 48.7956 8 48 8H34L29.8 2.4C29.7069 2.2758 29.5861 2.175 29.4472 2.10557C29.3084 2.03614 29.1552 2 29 2C28.8448 2 28.6916 2.03614 28.5528 2.10557C28.4139 2.175 28.2931 2.2758 28.2 2.4L24 8H12C11.2044 8 10.4413 8.31607 9.87868 8.87868C9.31607 9.44129 9 10.2044 9 11V59C9 59.7956 9.31607 60.5587 9.87868 61.1213C10.4413 61.6839 11.2044 62 12 62H48C48.7956 62 49.5587 61.6839 50.1213 61.1213C50.6839 60.5587 51 59.7956 51 59V48.5L51.24 48.23C51.3345 48.1261 51.4061 48.0034 51.45 47.87L61 21.61L61.69 19.73C61.9181 19.1122 62.0219 18.4555 61.9954 17.7976C61.969 17.1396 61.8128 16.4933 61.5359 15.8959C61.259 15.2984 60.8669 14.7615 60.3819 14.316C59.8969 13.8706 59.3288 13.5253 58.71 13.3V13.3ZM44.24 53.06L44.16 50.57L45.9 51.21L44.24 53.06ZM47.33 49.6L44.09 48.42L44 46.27L48.77 48L47.33 49.6ZM44.26 44.23L50.94 25.89L53.15 19.81L54.95 20.47H55.03L46.14 44.91L44.26 44.23ZM54.18 17C54.447 16.2534 54.9987 15.6428 55.7145 15.3018C56.4303 14.9608 57.252 14.917 58 15.18C58.7466 15.447 59.3572 15.9987 59.6982 16.7145C60.0392 17.4303 60.083 18.252 59.82 19L59.48 19.94L53.84 17.94L54.18 17ZM29 43H26C25.3293 41.6989 24.986 40.2538 25 38.79V38H33V38.91C32.9637 40.7028 32.3926 42.4439 31.36 43.91L29 47.27L27.37 45H29C29.2652 45 29.5196 44.8946 29.7071 44.7071C29.8946 44.5196 30 44.2652 30 44C30 43.7348 29.8946 43.4804 29.7071 43.2929C29.5196 43.1054 29.2652 43 29 43ZM17.28 32L19.9 21.51L22 19.41V32H17.28ZM33 36H25V34H33V36ZM36 19.41L38.1 21.51L40.72 32H36V19.41ZM32 16H34V32H24V12H34V14H32C31.7348 14 31.4804 14.1054 31.2929 14.2929C31.1054 14.4804 31 14.7348 31 15C31 15.2652 31.1054 15.5196 31.2929 15.7071C31.4804 15.8946 31.7348 16 32 16ZM29 4.67L32.7 9.59L33 9.99H25L25.3 9.59L29 4.67ZM49 59C49 59.2652 48.8946 59.5196 48.7071 59.7071C48.5196 59.8946 48.2652 60 48 60H12C11.7348 60 11.4804 59.8946 11.2929 59.7071C11.1054 59.5196 11 59.2652 11 59V11C11 10.7348 11.1054 10.4804 11.2929 10.2929C11.4804 10.1054 11.7348 10 12 10H22.5L22.21 10.38C22.1225 10.4954 22.061 10.6285 22.03 10.77V10.9V11V16.59L18.32 20.29C18.1921 20.42 18.1022 20.5826 18.06 20.76L15.06 32.76C15.0225 32.9076 15.0193 33.0618 15.0505 33.2108C15.0817 33.3599 15.1465 33.4998 15.24 33.62C15.331 33.7353 15.4463 33.8291 15.5776 33.8947C15.709 33.9604 15.8532 33.9964 16 34H23V38.79C22.995 40.2345 23.2771 41.6655 23.83 43H22C21.7348 43 21.4804 43.1054 21.2929 43.2929C21.1054 43.4804 21 43.7348 21 44C21 44.2652 21.1054 44.5196 21.2929 44.7071C21.4804 44.8946 21.7348 45 22 45H24.92C24.9599 45.0656 25.0033 45.129 25.05 45.19L28.19 49.58C28.282 49.7092 28.4035 49.8147 28.5443 49.8878C28.6852 49.9608 28.8413 49.9993 29 50C29.1603 50.0009 29.3185 49.9632 29.4612 49.8901C29.604 49.817 29.727 49.7106 29.82 49.58L33 45.09C34.2565 43.3036 34.9527 41.1835 35 39V37V34H42C42.1519 34.0008 42.302 33.967 42.4389 33.9012C42.5757 33.8353 42.6958 33.7392 42.79 33.62C42.8835 33.4998 42.9483 33.3599 42.9795 33.2108C43.0107 33.0618 43.0075 32.9076 42.97 32.76L39.97 20.76C39.9278 20.5826 39.8379 20.42 39.71 20.29L36 16.59V16H38C38.2652 16 38.5196 15.8946 38.7071 15.7071C38.8946 15.5196 39 15.2652 39 15C39 14.7348 38.8946 14.4804 38.7071 14.2929C38.5196 14.1054 38.2652 14 38 14H36V11V10.93V10.8C35.969 10.6585 35.9075 10.5254 35.82 10.41L35.5 10H48C48.2652 10 48.5196 10.1054 48.7071 10.2929C48.8946 10.4804 49 10.7348 49 11V25.36L42 44.45C41.9614 44.5527 41.9378 44.6605 41.93 44.77V44.77V44.85L42.07 49.15L42.27 55.61C42.2761 55.8104 42.3423 56.0043 42.46 56.1665C42.5777 56.3288 42.7415 56.4519 42.93 56.52C43.039 56.5596 43.154 56.5799 43.27 56.58C43.4095 56.5797 43.5475 56.5501 43.6749 56.4933C43.8024 56.4365 43.9165 56.3536 44.01 56.25L48.32 51.43L48.94 50.73L49 59ZM49.9 46.28L48 45.59L56.89 21.16L58.77 21.85L49.9 46.28Z" fill="#3B8686"/>
<path d="M26 20C26 20.5933 26.1759 21.1734 26.5056 21.6667C26.8352 22.1601 27.3038 22.5446 27.8519 22.7716C28.4001 22.9987 29.0033 23.0581 29.5853 22.9424C30.1672 22.8266 30.7018 22.5409 31.1213 22.1213C31.5409 21.7018 31.8266 21.1672 31.9424 20.5853C32.0581 20.0033 31.9987 19.4001 31.7716 18.8519C31.5446 18.3038 31.1601 17.8352 30.6667 17.5056C30.1734 17.1759 29.5933 17 29 17C28.2044 17 27.4413 17.3161 26.8787 17.8787C26.3161 18.4413 26 19.2044 26 20V20ZM30 20C30 20.1978 29.9414 20.3911 29.8315 20.5556C29.7216 20.72 29.5654 20.8482 29.3827 20.9239C29.2 20.9996 28.9989 21.0194 28.8049 20.9808C28.6109 20.9422 28.4327 20.847 28.2929 20.7071C28.153 20.5673 28.0578 20.3891 28.0192 20.1951C27.9806 20.0011 28.0004 19.8 28.0761 19.6173C28.1518 19.4346 28.28 19.2784 28.4444 19.1685C28.6089 19.0586 28.8022 19 29 19C29.2652 19 29.5196 19.1054 29.7071 19.2929C29.8946 19.4804 30 19.7348 30 20Z" fill="#3B8686"/>
<path d="M31 25H27C26.7348 25 26.4804 25.1054 26.2929 25.2929C26.1054 25.4804 26 25.7348 26 26C26 26.2652 26.1054 26.5196 26.2929 26.7071C26.4804 26.8946 26.7348 27 27 27H31C31.2652 27 31.5196 26.8946 31.7071 26.7071C31.8946 26.5196 32 26.2652 32 26C32 25.7348 31.8946 25.4804 31.7071 25.2929C31.5196 25.1054 31.2652 25 31 25Z" fill="#3B8686"/>
<path d="M15 47H17C17.5304 47 18.0391 46.7893 18.4142 46.4142C18.7893 46.0391 19 45.5304 19 45V43C19 42.4696 18.7893 41.9609 18.4142 41.5858C18.0391 41.2107 17.5304 41 17 41H15C14.4696 41 13.9609 41.2107 13.5858 41.5858C13.2107 41.9609 13 42.4696 13 43V45C13 45.5304 13.2107 46.0391 13.5858 46.4142C13.9609 46.7893 14.4696 47 15 47ZM15 43H17V45H15V43Z" fill="#3B8686"/>
<path d="M47 15C47 14.4067 46.8241 13.8266 46.4944 13.3333C46.1648 12.8399 45.6962 12.4554 45.148 12.2284C44.5999 12.0013 43.9967 11.9419 43.4147 12.0576C42.8328 12.1734 42.2982 12.4591 41.8787 12.8787C41.4591 13.2982 41.1734 13.8328 41.0576 14.4147C40.9419 14.9967 41.0013 15.5999 41.2284 16.1481C41.4554 16.6962 41.8399 17.1648 42.3333 17.4944C42.8266 17.8241 43.4067 18 44 18C44.7957 18 45.5587 17.6839 46.1213 17.1213C46.6839 16.5587 47 15.7957 47 15V15ZM43 15C43 14.8022 43.0586 14.6089 43.1685 14.4444C43.2784 14.28 43.4346 14.1518 43.6173 14.0761C43.8 14.0004 44.0011 13.9806 44.1951 14.0192C44.3891 14.0578 44.5673 14.153 44.7071 14.2929C44.847 14.4327 44.9422 14.6109 44.9808 14.8049C45.0194 14.9989 44.9996 15.2 44.9239 15.3827C44.8482 15.5654 44.72 15.7216 44.5556 15.8315C44.3911 15.9414 44.1978 16 44 16C43.7348 16 43.4804 15.8946 43.2929 15.7071C43.1054 15.5196 43 15.2652 43 15Z" fill="#3B8686"/>
<path d="M14 16H18C18.2652 16 18.5196 15.8946 18.7071 15.7071C18.8946 15.5196 19 15.2652 19 15C19 14.7348 18.8946 14.4804 18.7071 14.2929C18.5196 14.1054 18.2652 14 18 14H14C13.7348 14 13.4804 14.1054 13.2929 14.2929C13.1054 14.4804 13 14.7348 13 15C13 15.2652 13.1054 15.5196 13.2929 15.7071C13.4804 15.8946 13.7348 16 14 16V16Z" fill="#3B8686"/>
<path d="M14 20H16C16.2652 20 16.5196 19.8946 16.7071 19.7071C16.8946 19.5196 17 19.2652 17 19C17 18.7348 16.8946 18.4804 16.7071 18.2929C16.5196 18.1054 16.2652 18 16 18H14C13.7348 18 13.4804 18.1054 13.2929 18.2929C13.1054 18.4804 13 18.7348 13 19C13 19.2652 13.1054 19.5196 13.2929 19.7071C13.4804 19.8946 13.7348 20 14 20V20Z" fill="#3B8686"/>
<path d="M38 46H36C35.4696 46 34.9609 46.2107 34.5858 46.5858C34.2107 46.9609 34 47.4696 34 48V50C34 50.5304 34.2107 51.0391 34.5858 51.4142C34.9609 51.7893 35.4696 52 36 52H38C38.5304 52 39.0391 51.7893 39.4142 51.4142C39.7893 51.0391 40 50.5304 40 50V48C40 47.4696 39.7893 46.9609 39.4142 46.5858C39.0391 46.2107 38.5304 46 38 46ZM36 50V48H38V50H36Z" fill="#3B8686"/>
<path d="M38 44C38.2652 44 38.5196 43.8946 38.7071 43.7071C38.8946 43.5196 39 43.2652 39 43V37C39 36.7348 38.8946 36.4804 38.7071 36.2929C38.5196 36.1054 38.2652 36 38 36C37.7348 36 37.4804 36.1054 37.2929 36.2929C37.1054 36.4804 37 36.7348 37 37V43C37 43.2652 37.1054 43.5196 37.2929 43.7071C37.4804 43.8946 37.7348 44 38 44Z" fill="#3B8686"/>
<path d="M28 52H14C13.7348 52 13.4804 52.1054 13.2929 52.2929C13.1054 52.4804 13 52.7348 13 53V57C13 57.2652 13.1054 57.5196 13.2929 57.7071C13.4804 57.8946 13.7348 58 14 58H28C28.2652 58 28.5196 57.8946 28.7071 57.7071C28.8946 57.5196 29 57.2652 29 57V53C29 52.7348 28.8946 52.4804 28.7071 52.2929C28.5196 52.1054 28.2652 52 28 52ZM27 56H15V54H27V56Z" fill="#3B8686"/>
</svg>
