<?xml version="1.0" encoding="UTF-8"?>
<svg id="svg8" version="1.1" viewBox="0 0 24 24" xmlns="http://www.w3.org/2000/svg">
 <style id="style859"/>
 <g id="g2229" transform="translate(-80,-290.65)">
  <path id="path1377" transform="translate(0,290.65)" d="m82.504 3.7637v12.105h-1.0039v1.8672c0 1.3764 1.1236 2.5 2.5 2.5h16c1.3764 0 2.5-1.1236 2.5-2.5v-1.8672h-1.1367v-12.105zm1 1h16.859v1.6328h-16.859zm8.9551 3.9375c0.3151 0.10872 0.63021 0.21745 0.94531 0.32617-0.66885 1.932-1.3292 3.8669-1.998 5.7988-0.3151-0.10872-0.63021-0.21745-0.94531-0.32617 0.66884-1.932 1.3292-3.8669 1.998-5.7988zm-3.2637 1.0625c0.25977 0.20899 0.51953 0.41796 0.7793 0.62695-0.36798 0.45757-0.73569 0.91536-1.1035 1.373 0.36782 0.45769 0.73554 0.91548 1.1035 1.373-0.25977 0.20898-0.51953 0.41797-0.7793 0.62695-0.53625-0.66579-1.0703-1.3334-1.6055-2 0.5352-0.66663 1.0692-1.3342 1.6055-2zm5.4785 0.00195c0.53329 0.66698 1.0691 1.332 1.6035 1.998-0.53445 0.66606-1.0702 1.331-1.6035 1.998-0.25977-0.20898-0.51953-0.41797-0.7793-0.62695 0.36744-0.45683 0.7344-0.91404 1.1016-1.3711-0.36716-0.45705-0.73412-0.91427-1.1016-1.3711 0.25977-0.20898 0.51953-0.41797 0.7793-0.62695zm-12.174 7.1035h19v0.86719c0 0.83965-0.66035 1.5-1.5 1.5h-16c-0.83965 0-1.5-0.66035-1.5-1.5z" style="color-rendering:auto;color:#000000;dominant-baseline:auto;fill:#494949;font-feature-settings:normal;font-variant-alternates:normal;font-variant-caps:normal;font-variant-east-asian:normal;font-variant-ligatures:normal;font-variant-numeric:normal;font-variant-position:normal;font-variation-settings:normal;image-rendering:auto;inline-size:0;isolation:auto;mix-blend-mode:normal;shape-margin:0;shape-padding:0;shape-rendering:auto;solid-color:#000000;stop-color:#000000;text-decoration-color:#000000;text-decoration-line:none;text-decoration-style:solid;text-indent:0;text-orientation:mixed;text-transform:none;white-space:normal"/>
  <path id="path1425" d="m90.5 308.16v1h3v-1h-3z" style="color-rendering:auto;color:#000000;dominant-baseline:auto;fill:#494949;font-feature-settings:normal;font-variant-alternates:normal;font-variant-caps:normal;font-variant-east-asian:normal;font-variant-ligatures:normal;font-variant-numeric:normal;font-variant-position:normal;font-variation-settings:normal;image-rendering:auto;inline-size:0;isolation:auto;mix-blend-mode:normal;shape-margin:0;shape-padding:0;shape-rendering:auto;solid-color:#000000;stop-color:#000000;text-decoration-color:#000000;text-decoration-line:none;text-decoration-style:solid;text-indent:0;text-orientation:mixed;text-transform:none;white-space:normal"/>
 </g>
</svg>
