<?xml version="1.0" encoding="UTF-8" standalone="no"?> <svg id="Layer_1" data-name="Layer 1" xmlns="http://www.w3.org/2000/svg" viewBox="0 0 64 64"><defs><style>.cls-1{fill:#c46c30;}.cls-2{fill:#a55b28;}.cls-3{fill:#e5e5e5;}.cls-4{fill:#d1d1d1;}.cls-5{fill:#35251c;}.cls-6{fill:#e2a983;}.cls-7{fill:#fff;}</style></defs><title>Espresso Machine Icon</title><rect class="cls-1" x="6.81" y="5.22" width="49.35" height="12.54" rx="2.82"/><path class="cls-2" d="M53.34,17.76a2.82,2.82,0,0,0,2.82-2.82V8a2.82,2.82,0,0,0-2.82-2.82H31.48V17.76Z"/><path class="cls-3" d="M48.26,55.8H14.49a6.51,6.51,0,0,0-6.63,6.39v.08h47s0-.05,0-.08A6.52,6.52,0,0,0,48.26,55.8Z"/><path class="cls-4" d="M48.26,55.8H31.58v6.47H54.89s0-.05,0-.08A6.52,6.52,0,0,0,48.26,55.8Z"/><polygon class="cls-3" points="52.13 17.76 10.63 17.76 13.78 55.8 49.3 55.8 52.13 17.76"/><polygon class="cls-4" points="49.3 55.8 52.13 17.76 31.58 17.76 31.58 55.8 49.3 55.8"/><circle class="cls-5" cx="31.48" cy="11.49" r="2.67"/><circle class="cls-6" cx="18.65" cy="11.49" r="1.6"/><circle class="cls-6" cx="44.31" cy="11.49" r="1.6"/><rect class="cls-5" x="20.74" y="50.08" width="20.92" height="3" rx="1.5"/><rect class="cls-3" x="26.45" y="18.02" width="9.73" height="9.73" rx="2.29"/><path class="cls-4" d="M33.89,18H31.48v9.73h2.41a2.29,2.29,0,0,0,2.3-2.29V20.31A2.3,2.3,0,0,0,33.89,18Z"/><path class="cls-5" d="M57.52,21.39H53.36l.16-2.15a4.31,4.31,0,0,0,4.14-4.3V8a4.33,4.33,0,0,0-4.32-4.32H9.62A4.32,4.32,0,0,0,5.31,8v6.9a4.31,4.31,0,0,0,3.93,4.28l2.93,35.41a8,8,0,0,0-5.81,7.64v1.5H54.89l1.5.07V62.19a7.91,7.91,0,0,0-5.52-7.46l2.26-30.34h4.38A1.45,1.45,0,0,0,59,22.93v-.09A1.45,1.45,0,0,0,57.52,21.39Zm-20-2.13h13l-.16,2.13H37.69V20.31A3.72,3.72,0,0,0,37.52,19.26Zm-2.83,1v5.15a.79.79,0,0,1-.8.79H28.75a.79.79,0,0,1-.8-.79V20.31a.8.8,0,0,1,.8-.79h5.14A.8.8,0,0,1,34.69,20.31Zm-25.07-4a1.32,1.32,0,0,1-1.31-1.32V8A1.32,1.32,0,0,1,9.62,6.72H53.34A1.32,1.32,0,0,1,54.66,8v6.9a1.32,1.32,0,0,1-1.32,1.32ZM53.19,60.77H9.58a5.11,5.11,0,0,1,4.91-3.47H48.26A5.13,5.13,0,0,1,53.19,60.77ZM47.91,54.3H15.16l-2.9-35H25.12a3.72,3.72,0,0,0-.17,1v5.15a3.8,3.8,0,0,0,3.8,3.79h5.14a3.8,3.8,0,0,0,3.8-3.79V24.39H50.13Z"/><path class="cls-7" d="M22.2,38.29H41s-1.42,9.2-9.49,9.2C31.48,47.49,22.71,48.05,22.2,38.29Z"/><path class="cls-3" d="M31.48,47.49c8.07,0,9.49-9.2,9.49-9.2H31.48Z"/><path class="cls-5" d="M45.83,40.77A3.3,3.3,0,0,0,44.3,38.4,3.76,3.76,0,0,0,41.94,38V36.86H22.25l-1.5-.08v1.63a10.58,10.58,0,0,0,18.92,6.53,4.58,4.58,0,0,0,2.09.52,4.42,4.42,0,0,0,2.44-.74A3.75,3.75,0,0,0,45.83,40.77ZM31.34,46a7.62,7.62,0,0,1-7.47-6.15H38.8A7.61,7.61,0,0,1,31.34,46Zm11.74-2.95a2.52,2.52,0,0,1-2.33.19,10.62,10.62,0,0,0,1-3.21,2.17,2.17,0,0,1,1.49.08,1.31,1.31,0,0,1,.58,1A1.8,1.8,0,0,1,43.08,43.06Z"/></svg>